PathFileType	4	(X/Y/Z)	Patient4_TMGait_0pt5_01_right_41.trc.trc
DataRate	CameraRate	NumFrames	NumMarkers	Units	OrigDataRate	OrigDataStartFrame	OrigNumFrames
74.468085106383	74.468085106383	4	33	mm	74.468085106383	89	       141
Frame#	Time	L.ASIS			Sacral			L.Shoulder			Chest			R.Shoulder			Neck			R.ASIS			R.Thigh.Superior			R.Thigh.Lateral			R.Thigh.Inferior			R.Patella			L.Thigh.Superior			L.Thigh.Lateral			L.Thigh.Inferior			L.Patella			L.Shank.Superior			L.Shank.Lateral			L.Shank.Inferior			R.Shank.Superior			R.Shank.Lateral			R.Shank.Inferior			R.Heel			R.Midfoot.Superior			R.Midfoot.Lateral			R.Toe			L.Heel			L.Midfoot.Lateral			L.Midfoot.Superior			L.Toe			L.Elbow			L.Wrist			R.Elbow			R.Wrist			
		X1	Y1	Z1	X2	Y2	Z2	X3	Y3	Z3	X4	Y4	Z4	X5	Y5	Z5	X6	Y6	Z6	X7	Y7	Z7	X8	Y8	Z8	X9	Y9	Z9	X10	Y10	Z10	X11	Y11	Z11	X12	Y12	Z12	X13	Y13	Z13	X14	Y14	Z14	X15	Y15	Z15	X16	Y16	Z16	X17	Y17	Z17	X18	Y18	Z18	X19	Y19	Z19	X20	Y20	Z20	X21	Y21	Z21	X22	Y22	Z22	X23	Y23	Z23	X24	Y24	Z24	X25	Y25	Z25	X26	Y26	Z26	X27	Y27	Z27	X28	Y28	Z28	X29	Y29	Z29	X30	Y30	Z30	X31	Y31	Z31	X32	Y32	Z32	X33	Y33	Z33	

89	55.171714285714	801.226939921295	962.109908328692	276.199870180832	591.119333470475	1005.737288955703	440.043480789031	742.161534913394	1435.588247473459	254.692202321972	856.630367112081	1370.486973184538	409.278607099343	780.226239512730	1440.928029210783	588.449215496293	745.012329215592	1496.244120022416	405.899674775257	820.743241243964	941.669247434176	549.973283980978	855.046346502592	736.537591745457	534.820460363434	773.983734113893	631.980843074761	603.468714843186	854.082333012921	568.928870306348	532.305200895197	843.888857096671	461.937814174477	555.373179365923	866.124456485644	759.751658289958	312.463714694553	791.092439668210	635.611942993658	253.499888999459	882.640290121778	566.504417451140	318.534992568140	890.218880093188	494.725780126189	328.410816049950	863.491928196967	420.695460034249	321.320794741363	777.333000013372	304.465311461676	270.674315632211	828.675926228739	194.798389089704	342.080104029443	768.414630595774	393.793691093100	561.909265235524	648.299362236277	349.831263255056	619.478536027978	640.377062017302	239.218225588157	572.105647612585	441.384189851001	164.995457608854	540.757758118771	610.684005433280	118.996244101595	586.911812778345	501.442914530406	110.179567222612	615.926897612898	681.581779105817	31.586875079388	615.197140310909	701.607997594696	38.450808687195	383.016439901219	775.319339847401	35.306936792460	302.084340969877	859.034122659358	96.433838829856	328.297470056741	987.374627318156	41.525275196417	299.408181434146	708.756613717446	1080.889677386528	136.499782821067	829.285876462533	847.669229375792	127.551192377294	865.576713705846	1103.317900027609	697.356051544602	1104.592994309606	1032.455196828367	639.730210189782	
90	55.185142857143	801.200345051825	962.360814829005	273.466931475809	590.439283980791	1005.933980242635	436.571571772661	743.233906519718	1436.212011249732	251.774061572001	856.577054511860	1370.851767408425	407.090413325060	778.931385006357	1441.017751449490	585.899413304984	745.116352650074	1496.649771310834	403.101492934196	819.497634882717	942.258216915904	547.154267118780	859.234121713182	739.326119458840	532.414850202982	781.758369836644	633.284970812187	602.146612365588	863.505937635578	571.652091674777	530.821732950387	855.174399964162	463.563071713145	554.803798920350	864.462149055339	758.960947675523	309.751956619859	788.083731008989	635.528289348576	251.215379258461	878.819510679800	565.639014499313	316.361951036259	885.647131176324	493.930887577515	326.544034132127	858.663840590478	420.032928994594	319.695131987964	771.996871132018	304.020489071096	269.488180290556	822.674589736040	194.434188899713	341.442921376926	778.191223688623	395.889811568046	561.345478160168	656.629066133877	355.604992819235	618.783902979759	645.868676323023	244.996230476717	572.076259068239	445.522752413721	179.839089568959	540.203475309936	611.787943463994	123.676272050802	586.885983461265	502.053636228079	121.377357139706	615.575850221879	676.682624973351	30.723818670012	615.520129372193	694.853843416930	38.438429770350	382.934014938190	768.558124909563	35.223851386280	301.990065568863	852.336349684894	96.305462484813	328.184249143569	980.668532786762	41.214733891074	299.362836224311	715.204786485776	1081.984191915952	130.598177983828	845.378061838356	854.002469566371	120.915919699163	855.506006140037	1100.350236377476	694.194059288100	1090.454204964964	1011.705444815913	641.958205674920	
91	55.198571428571	801.001297043493	962.498159300866	270.916600151527	589.639354200475	1006.021838267625	433.282743685611	744.181960984357	1436.654703713186	248.972893246112	856.450608899202	1371.061171125983	404.993316025815	777.625634120731	1441.006189258865	583.451609882190	745.207929143070	1496.945453811603	400.390808560669	818.174389884387	942.759604282594	544.536576262837	863.335019464182	742.320132242516	529.908626534626	789.567475018984	634.810655748385	600.744632400930	872.833067953560	574.744184182278	529.118219251401	866.514859244424	465.606005802017	553.831711223276	862.714124439498	758.152061668002	306.961901610345	784.898871803413	635.430355732387	248.964894542203	874.920183389516	564.762158049726	314.085294176032	881.021779649573	493.138565243016	324.586580804055	853.793629470057	419.369219805289	318.026424103849	766.595917098477	303.580310169647	268.284452932349	816.648493114066	194.069052213387	340.765388274140	788.180938592373	398.289291414505	560.398502459139	665.387628675266	361.431511756012	617.784682867911	651.930818255881	250.935883432593	571.619616224718	450.676836730911	194.241267245073	539.185010824325	613.786979275082	128.895476040313	586.498993710072	503.801197099442	132.699136417335	614.871850323351	672.926258698090	30.161605563609	615.730195728208	688.113503167280	38.426828971991	382.846214782385	761.804756062684	35.144368129820	301.884818857792	845.626811611761	96.190605161444	328.048789859960	973.957520311576	40.980754319026	299.296909756152	721.583227386476	1083.031269214723	124.823902432773	861.351319824807	860.815024760306	114.422808399437	845.255811854160	1097.532270270935	691.139452252180	1074.502856064672	990.999303626816	644.392740929968	
92	55.212000000000	800.652067861086	962.559980590006	268.559790471517	588.729314383381	1006.044236136380	430.177927538534	745.015584837954	1436.950927985562	246.295586342890	856.258104835467	1371.155215826939	402.998097596243	776.313168994146	1440.940156810942	581.109621853189	745.295152313671	1497.167290491272	397.774416698049	816.802608533307	943.219244028836	542.143701188849	867.252002697239	745.521026959067	527.326965269714	797.242230102261	636.583870618750	599.250595317033	881.896554023236	578.211430959695	527.225223869506	877.731943439739	468.081168635477	552.498593217626	860.887523275281	757.327065244618	304.110807920837	781.543527440821	635.317681938856	246.788151949986	870.937722198467	563.877917807992	311.761043769070	876.337240138726	492.356699834601	322.599842222237	848.874329409629	418.718670009907	316.362489574012	761.131056580560	303.161463936412	267.096904674223	810.594949753928	193.713710712949	340.072587006860	798.225083101684	400.990183461514	559.095871142424	674.406044801668	367.188584804040	616.456045276320	658.517174790859	256.879593764874	570.721961976401	456.732551517039	207.646936478895	537.690517795745	616.819883897667	134.465393371896	585.726241481158	506.763803733528	143.666403689754	613.779148777866	670.714254120848	30.056624040584	615.730530748640	681.383466913005	38.420725138626	382.754704772348	755.058628781332	35.072827508106	301.773947368576	838.909558820405	96.089643075562	327.897081129823	967.243006589730	40.809052760880	299.213711438456	727.901104496072	1084.045437028331	119.235879198097	877.107745021274	868.086750280323	108.130043404084	834.914894203905	1094.962275084769	688.252880457696	1056.733430198207	970.633640100228	646.964746988616	
